<svg width="30" height="30" viewBox="0 0 30 30" fill="none" xmlns="http://www.w3.org/2000/svg">
<circle cx="15" cy="15" r="15" fill="#222222"/>
<path d="M6.2065 14.0545H4.80078V12.2751H6.2065V10.0059H8.6065V12.2751H10.6636V14.0545H8.6065V17.9889C8.6065 18.4352 8.70364 18.7399 8.89792 18.9032C9.09221 19.0555 9.34364 19.1317 9.65221 19.1317C9.81221 19.1317 9.97221 19.1263 10.1322 19.1154C10.3036 19.0936 10.4694 19.061 10.6294 19.0174L10.9722 20.699C10.6408 20.7969 10.3151 20.8622 9.99507 20.8949C9.6865 20.9384 9.38935 20.9602 9.10364 20.9602C8.12078 20.9602 7.38935 20.737 6.90935 20.2908C6.44078 19.8446 6.2065 19.0936 6.2065 18.0379V14.0545Z" fill="white"/>
<path d="M11.982 18.1685H14.4335V20.7969H11.982V18.1685ZM11.982 12.2751H14.4335V14.9035H11.982V12.2751Z" fill="white"/>
<path d="M16.3722 9.14062H18.7208V15.2463L22.1665 12.2751H24.9436L21.6865 15.2136L25.2008 20.7969H22.6122L19.9722 16.487L18.7208 17.5645V20.7969H16.3722V9.14062Z" fill="white"/>
</svg>
